<svg width="58" height="58" viewBox="0 0 58 58" fill="none" xmlns="http://www.w3.org/2000/svg">
<g clip-path="url(#clip0_31_6334)">
<path d="M27.8215 32.5355C29.0043 32.706 30.2098 32.6202 31.3565 32.2838C32.5031 31.9474 33.564 31.3683 34.4671 30.5859C35.3703 29.8035 36.0946 28.8359 36.591 27.7489C37.0873 26.6619 37.3441 25.4809 37.3439 24.2859L37.3439 17.2149C37.3059 15.0302 36.4114 12.9477 34.8529 11.4162C33.2945 9.88458 31.1969 9.02637 29.0118 9.02637C26.8268 9.02637 24.7291 9.88458 23.1707 11.4162C21.6122 12.9477 20.7177 15.0302 20.6797 17.2149L20.668 21.2572M30.1785 25.4645C28.9958 25.294 27.7902 25.3798 26.6436 25.7162C25.497 26.0526 24.4361 26.6316 23.5329 27.4141C22.6298 28.1965 21.9054 29.1641 21.4091 30.2511C20.9127 31.3381 20.656 32.5191 20.6562 33.714L20.6562 40.7851C20.6941 42.9698 21.5887 45.0522 23.1471 46.5838C24.7055 48.1154 26.8032 48.9736 28.9882 48.9736C31.1733 48.9736 33.2709 48.1154 34.8294 46.5838C36.3878 45.0522 37.2823 42.9698 37.3203 40.7851L37.3203 36.7546" stroke="#1E1E1E" stroke-width="4" stroke-linecap="round" stroke-linejoin="round"/>
</g>
<defs>
<clipPath id="clip0_31_6334">
<rect width="40" height="40" fill="white" transform="translate(0.715759 29) rotate(-45)"/>
</clipPath>
</defs>
</svg>
