<svg width="156" height="68" viewBox="0 0 156 68" fill="none" xmlns="http://www.w3.org/2000/svg">
<path d="M57.4416 25.152C60.3856 25.152 62.5296 25.792 63.8736 27.072C65.239 28.3307 65.9216 30.0693 65.9216 32.288C65.9216 33.2907 65.7723 34.2507 65.4736 35.168C65.175 36.064 64.6736 36.8747 63.9696 37.6C63.287 38.304 62.3803 38.8587 61.2496 39.264C60.119 39.6693 58.7216 39.872 57.0576 39.872H54.9776V48H50.1456V25.152H57.4416ZM57.1856 29.12H54.9776V35.904H56.5776C57.495 35.904 58.2843 35.7867 58.9456 35.552C59.607 35.3173 60.119 34.944 60.4816 34.432C60.8443 33.92 61.0256 33.2587 61.0256 32.448C61.0256 31.3173 60.7163 30.4853 60.0976 29.952C59.479 29.3973 58.5083 29.12 57.1856 29.12ZM77.1234 30.176C79.47 30.176 81.262 30.688 82.4994 31.712C83.758 32.7147 84.3874 34.2613 84.3874 36.352V48H81.0594L80.1314 45.632H80.0034C79.5127 46.2507 79.0007 46.7627 78.4674 47.168C77.9554 47.5733 77.358 47.8613 76.6754 48.032C76.014 48.224 75.1927 48.32 74.2114 48.32C73.1874 48.32 72.2594 48.128 71.4274 47.744C70.6167 47.3387 69.9767 46.7307 69.5074 45.92C69.038 45.088 68.8034 44.0427 68.8034 42.784C68.8034 40.928 69.454 39.5627 70.7554 38.688C72.0567 37.792 74.0087 37.3013 76.6114 37.216L79.6514 37.12V36.352C79.6514 35.4347 79.406 34.7627 78.9154 34.336C78.446 33.9093 77.7847 33.696 76.9314 33.696C76.078 33.696 75.246 33.824 74.4354 34.08C73.6247 34.3147 72.814 34.6133 72.0034 34.976L70.4354 31.744C71.374 31.2533 72.4087 30.8693 73.5394 30.592C74.6914 30.3147 75.886 30.176 77.1234 30.176ZM77.7954 39.968C76.2594 40.0107 75.1927 40.288 74.5954 40.8C73.998 41.312 73.6994 41.984 73.6994 42.816C73.6994 43.5413 73.9127 44.064 74.3394 44.384C74.766 44.6827 75.3207 44.832 76.0034 44.832C77.0274 44.832 77.8914 44.5333 78.5954 43.936C79.2994 43.3173 79.6514 42.4533 79.6514 41.344V39.904L77.7954 39.968ZM94.1359 30.528V48H89.3679V30.528H94.1359ZM91.7679 23.68C92.4719 23.68 93.0799 23.8507 93.5919 24.192C94.1039 24.512 94.3599 25.12 94.3599 26.016C94.3599 26.8907 94.1039 27.4987 93.5919 27.84C93.0799 28.1813 92.4719 28.352 91.7679 28.352C91.0425 28.352 90.4239 28.1813 89.9119 27.84C89.4212 27.4987 89.1759 26.8907 89.1759 26.016C89.1759 25.12 89.4212 24.512 89.9119 24.192C90.4239 23.8507 91.0425 23.68 91.7679 23.68ZM108.978 30.208C109.213 30.208 109.49 30.2187 109.81 30.24C110.13 30.2613 110.386 30.2933 110.578 30.336L110.226 34.816C110.077 34.7733 109.853 34.7413 109.554 34.72C109.277 34.6773 109.031 34.656 108.818 34.656C108.199 34.656 107.602 34.7413 107.026 34.912C106.45 35.0613 105.927 35.3067 105.458 35.648C105.01 35.9893 104.647 36.448 104.37 37.024C104.114 37.5787 103.986 38.272 103.986 39.104V48H99.2179V30.528H102.834L103.538 33.472H103.762C104.103 32.8747 104.53 32.3307 105.042 31.84C105.554 31.3493 106.141 30.9547 106.802 30.656C107.485 30.3573 108.21 30.208 108.978 30.208Z" fill="#757575"/>
<path d="M132.825 39.936C132.825 41.5147 132.473 42.944 131.769 44.224C131.086 45.4827 130.041 46.4853 128.633 47.232C127.246 47.9573 125.486 48.32 123.353 48.32C120.324 48.32 118.02 47.552 116.441 46.016C114.862 44.4587 114.073 42.4107 114.073 39.872V25.152H118.905V39.136C118.905 41.0133 119.289 42.336 120.057 43.104C120.825 43.872 121.966 44.256 123.481 44.256C124.548 44.256 125.412 44.0747 126.073 43.712C126.734 43.3493 127.214 42.784 127.513 42.016C127.833 41.248 127.993 40.2773 127.993 39.104V25.152H132.825V39.936ZM145.817 25.152C148.761 25.152 150.905 25.792 152.249 27.072C153.614 28.3307 154.297 30.0693 154.297 32.288C154.297 33.2907 154.147 34.2507 153.849 35.168C153.55 36.064 153.049 36.8747 152.345 37.6C151.662 38.304 150.755 38.8587 149.625 39.264C148.494 39.6693 147.097 39.872 145.433 39.872H143.353V48H138.521V25.152H145.817ZM145.561 29.12H143.353V35.904H144.953C145.87 35.904 146.659 35.7867 147.321 35.552C147.982 35.3173 148.494 34.944 148.857 34.432C149.219 33.92 149.401 33.2587 149.401 32.448C149.401 31.3173 149.091 30.4853 148.473 29.952C147.854 29.3973 146.883 29.12 145.561 29.12Z" fill="#FF3B3B"/>
<g clip-path="url(#clip0_4_1160)">
<path d="M32.4366 38.1483C33.8516 38.381 35.3 38.3066 36.6837 37.9302C38.0674 37.5538 39.3539 36.8843 40.4561 35.967C41.5582 35.0497 42.4502 33.906 43.0715 32.6137C43.6928 31.3213 44.029 29.9105 44.0571 28.4768L44.2249 19.9932C44.2312 17.3711 43.2074 14.8515 41.374 12.9769C39.5406 11.1024 37.0443 10.023 34.4228 9.9711C31.8012 9.91923 29.2642 10.8991 27.358 12.6996C25.4519 14.5002 24.3293 16.9774 24.2318 19.5976L24.1218 24.4471M35.4323 29.7206C34.0174 29.488 32.569 29.5624 31.1853 29.9388C29.8016 30.3151 28.5151 30.9847 27.4129 31.902C26.3107 32.8193 25.4188 33.9629 24.7974 35.2553C24.1761 36.5476 23.84 37.9585 23.8119 39.3922L23.6441 47.8758C23.6378 50.4978 24.6616 53.0175 26.495 54.892C28.3284 56.7666 30.8247 57.846 33.4462 57.8979C36.0678 57.9497 38.6048 56.9699 40.5109 55.1693C42.417 53.3688 43.5397 50.8916 43.6371 48.2714L43.7328 43.4357" stroke="#757575" stroke-width="4" stroke-linecap="round" stroke-linejoin="round"/>
</g>
<defs>
<clipPath id="clip0_4_1160">
<rect width="48" height="48" fill="white" transform="translate(0 33.2631) rotate(-43.8665)"/>
</clipPath>
</defs>
</svg>
